<?xml version="1.0" encoding="UTF-8"?>
<svg width="24" height="24" viewBox="0 0 24 24" xmlns="http://www.w3.org/2000/svg" aria-labelledby="title">
  <title>Discuss</title>
  <g fill="none" stroke="#1d4ed8" stroke-width="1.8" stroke-linecap="round" stroke-linejoin="round">
    <path d="M4 6.5A2.5 2.5 0 0 1 6.5 4h7A2.5 2.5 0 0 1 16 6.5v4A2.5 2.5 0 0 1 13.5 13H9l-3.5 3v-3.5A2.5 2.5 0 0 1 4 10.5v-4Z"/>
    <path d="M18 8.5h.5A1.5 1.5 0 0 1 20 10v3.2l2 1.8-2.5.5A2.5 2.5 0 0 1 17 13v-1"/>
    <circle cx="8.25" cy="8.25" r=".75"/>
    <circle cx="11" cy="8.25" r=".75"/>
    <circle cx="13.75" cy="8.25" r=".75"/>
  </g>
</svg>
